<?xml version="1.0" standalone="no"?>
<!DOCTYPE svg PUBLIC "-//W3C//DTD SVG 20010904//EN"
 "http://www.w3.org/TR/2001/REC-SVG-20010904/DTD/svg10.dtd">
<svg version="1.0" xmlns="http://www.w3.org/2000/svg"
 width="721.000000pt" height="721.000000pt" viewBox="0 0 721.000000 721.000000"
 preserveAspectRatio="xMidYMid meet">
<metadata>
Created by potrace 1.14, written by Peter Selinger 2001-2017
</metadata>
<g transform="translate(0.000000,721.000000) scale(0.100000,-0.100000)"
fill="#000000" stroke="none">
<path d="M3320 6569 c-102 -10 -349 -55 -435 -78 -442 -119 -772 -284 -1127
-564 -133 -104 -354 -325 -435 -435 -15 -20 -31 -39 -34 -42 -16 -13 -141
-195 -196 -285 -66 -109 -147 -264 -176 -335 -10 -25 -25 -58 -32 -75 -64
-137 -162 -503 -184 -680 -27 -215 -31 -273 -31 -425 0 -459 120 -957 323
-1339 83 -157 227 -379 322 -495 141 -174 357 -384 520 -504 39 -28 75 -55 80
-59 6 -5 55 -37 110 -73 182 -117 443 -242 635 -304 47 -15 112 -36 145 -46
108 -35 407 -89 545 -100 358 -27 751 10 1030 96 187 57 251 78 289 96 24 10
66 28 93 39 68 26 276 133 322 164 20 14 39 25 41 25 5 0 143 89 160 102 6 5
42 32 80 60 77 57 88 67 214 179 73 64 151 144 257 264 46 50 194 254 244 335
70 112 165 289 196 364 14 34 31 75 39 91 47 100 143 427 170 580 47 273 55
692 17 945 -49 324 -160 665 -308 944 -29 55 -58 108 -64 116 -5 8 -32 51 -59
95 -70 113 -213 299 -312 407 -95 102 -266 260 -349 321 -30 23 -64 49 -74 59
-11 10 -23 18 -27 18 -4 0 -14 6 -21 13 -33 32 -226 148 -353 213 -158 81
-327 150 -460 189 -49 15 -103 31 -120 36 -69 21 -329 70 -450 84 -138 16
-454 18 -585 4z"/>
</g>
</svg>
